<svg width="100" height="100" viewBox="0 0 100 100" fill="none" xmlns="http://www.w3.org/2000/svg">
<path fill-rule="evenodd" clip-rule="evenodd" d="M43.7204 33.6873C44.4473 34.0407 47.2961 35.6171 47.4312 35.4262C50.9258 30.495 45.1443 18.916 43.7706 14.7021C43.3961 13.5531 42.3989 9.96783 43.4443 7C42.7058 9.09666 41.8293 11.195 41.8351 13.7036C41.8515 20.2946 46.5441 26.9621 43.6471 33.4078C43.6152 33.4783 43.6152 33.6365 43.7204 33.6873ZM54.346 33.6873C55.073 34.0407 57.9217 35.6171 58.0568 35.4262C61.5514 30.495 55.7699 18.916 54.3962 14.7021C54.0217 13.5531 53.0245 9.96783 54.0699 7C53.3315 9.09666 52.4549 11.195 52.4607 13.7036C52.4771 20.2946 57.1697 26.9621 54.2727 33.4078C54.2418 33.4783 54.2418 33.6365 54.346 33.6873ZM76.2518 45.4339C75.4727 44.6513 74.294 44.7149 72.9638 44.6788C72.4512 44.6633 71.6731 44.7545 71.3246 44.4285C70.8999 44.0312 71.0871 43.1463 71.0688 42.6475C71.0234 41.5287 70.9288 40.3401 70.2705 39.9428C69.6131 39.5481 67.2219 39.7485 65.6609 39.7485H36.5054C34.7745 39.7485 32.7975 39.4759 31.5754 39.7485C30.3822 40.0159 30.3214 41.4418 30.2451 42.7619C30.1824 43.8352 29.7769 44.6633 28.4331 44.5799C26.8702 44.4844 25.3151 44.4543 24.6084 45.3823C23.6546 46.637 24.0157 47.9588 24.3922 50.6282H76.7026C76.9661 48.4774 77.3822 46.5699 76.2518 45.4339ZM28.466 52.6698C29.7267 63.8635 30.9662 75.0769 32.2173 86.28H33.8864C34.231 88.1496 34.7263 91.348 35.1124 93H66.1967C66.3521 91.2043 67.0993 88.2563 67.4024 86.28H69.0908C70.3226 74.9625 71.6345 63.7173 72.8441 52.3783H28.5741C28.4466 52.3946 28.4553 52.5314 28.466 52.6698Z" fill="#F59625"/>
</svg>
