<svg width="305" height="69" viewBox="0 0 305 69" fill="none" xmlns="http://www.w3.org/2000/svg">
<g clip-path="url(#clip0_1_2)">
<path d="M27.712 19.096C29.8027 19.096 31.7227 19.5867 33.472 20.568C35.264 21.5067 36.672 22.808 37.696 24.472C38.72 26.0933 39.232 27.8853 39.232 29.848C39.232 32.8347 38.5707 35.1173 37.248 36.696C35.9253 38.2747 34.1333 39.4053 31.872 40.088V40.344C37.4613 41.624 40.256 45.272 40.256 51.288C40.256 53.4213 39.7013 55.384 38.592 57.176C37.5253 58.968 36.0533 60.3973 34.176 61.464C32.3413 62.488 30.3147 63 28.096 63H3.648V19.096H27.712ZM16 35.928H23.36C24.256 35.928 25.0027 35.6293 25.6 35.032C26.24 34.392 26.56 33.624 26.56 32.728V31.64C26.56 30.744 26.24 29.9973 25.6 29.4C25.0027 28.76 24.256 28.44 23.36 28.44H16V35.928ZM16 52.824H24.128C25.024 52.824 25.7707 52.5253 26.368 51.928C27.008 51.288 27.328 50.52 27.328 49.624V48.472C27.328 47.576 27.008 46.8293 26.368 46.232C25.7707 45.592 25.024 45.272 24.128 45.272H16V52.824ZM57.68 29.656C60.9653 29.656 63.7813 30.296 66.128 31.576C68.5173 32.8133 70.3307 34.5413 71.568 36.76C72.848 38.9787 73.488 41.5173 73.488 44.376V48.344H52.176V51.416C52.176 52.8667 52.624 53.976 53.52 54.744C54.4587 55.512 55.6533 55.896 57.104 55.896C58.5973 55.896 59.728 55.448 60.496 54.552C61.3067 53.6133 61.712 52.3333 61.712 50.712H73.424C73.424 53.144 72.784 55.3413 71.504 57.304C70.2667 59.2667 68.432 60.824 66 61.976C63.6107 63.0853 60.7733 63.64 57.488 63.64H56.528C53.1147 63.64 50.0427 63.0213 47.312 61.784C44.624 60.504 42.4907 58.6693 40.912 56.28C39.376 53.848 38.608 50.968 38.608 47.64V45.656C38.608 42.328 39.3333 39.4693 40.784 37.08C42.2773 34.648 44.3467 32.8133 46.992 31.576C49.6373 30.296 52.6667 29.656 56.08 29.656H57.68ZM56.592 37.4C55.3547 37.4 54.3093 37.848 53.456 38.744C52.6027 39.5973 52.176 40.6427 52.176 41.88V42.776H61.008V41.88C61.008 40.6427 60.5813 39.5973 59.728 38.744C58.8747 37.848 57.8293 37.4 56.592 37.4ZM90.1655 29.656C95.1148 29.656 98.8908 30.616 101.494 32.536C104.139 34.456 105.462 36.952 105.462 40.024V53.528C105.462 54.3387 105.654 54.936 106.038 55.32C106.422 55.704 106.891 55.896 107.446 55.896C108.256 55.896 109.003 55.704 109.686 55.32V62.168C108.32 63.1493 106.166 63.64 103.222 63.64C100.491 63.64 98.3362 63.192 96.7575 62.296C95.1788 61.3573 94.1975 60.0773 93.8135 58.456C92.4482 60.0347 90.9335 61.2933 89.2695 62.232C87.6482 63.1707 85.6428 63.64 83.2535 63.64C79.8402 63.64 77.0668 62.9787 74.9335 61.656C72.8002 60.3333 71.7335 57.7307 71.7335 53.848C71.7335 50.904 72.5655 48.6427 74.2295 47.064C75.8935 45.4427 78.2615 44.3333 81.3335 43.736C84.4482 43.096 88.3948 42.776 93.1735 42.776V40.92C93.1735 39.7253 92.7682 38.7867 91.9575 38.104C91.1895 37.4213 90.2082 37.08 89.0135 37.08C88.0322 37.08 87.0935 37.3787 86.1975 37.976C85.3442 38.5307 84.9175 39.2347 84.9175 40.088V40.344H72.7575C72.7148 40.216 72.6935 39.9173 72.6935 39.448C72.6935 37.6133 73.3122 35.9707 74.5495 34.52C75.8295 33.0267 77.6215 31.8533 79.9255 31C82.2722 30.104 84.9815 29.656 88.0535 29.656H90.1655ZM93.1735 48.6C90.3575 48.6 88.2882 48.984 86.9655 49.752C85.6428 50.4773 84.9815 51.5013 84.9815 52.824C84.9815 54.872 86.2615 55.896 88.8215 55.896C90.0162 55.896 91.0402 55.4907 91.8935 54.68C92.7468 53.8267 93.1735 52.7387 93.1735 51.416V48.6ZM130.743 29.656C132.492 29.656 134.092 30.0827 135.543 30.936C137.036 31.7893 138.21 32.9627 139.063 34.456C139.916 35.9067 140.343 37.5067 140.343 39.256V63H127.671V42.52C127.671 41.4533 127.33 40.5573 126.647 39.832C126.007 39.064 125.218 38.68 124.279 38.68C123.34 38.68 122.53 39.064 121.847 39.832C121.207 40.5573 120.887 41.4533 120.887 42.52V63H108.215V30.296H117.751L119.031 35.032C121.378 31.448 124.684 29.656 128.951 29.656H130.743ZM159.392 18.456C164.597 18.456 168.864 19.5867 172.192 21.848C175.562 24.1093 177.248 27.4587 177.248 31.896V32.664H164.96V32.408C164.96 31.1707 164.512 30.168 163.616 29.4C162.762 28.5893 161.44 28.184 159.648 28.184C157.898 28.184 156.576 28.44 155.68 28.952C154.784 29.4213 154.336 30.0613 154.336 30.872C154.336 31.8533 154.848 32.6427 155.872 33.24C156.938 33.7947 158.474 34.2853 160.48 34.712L166.176 35.992C174.112 37.784 178.08 41.9013 178.08 48.344C178.08 53.592 176.352 57.4533 172.896 59.928C169.44 62.4027 164.661 63.64 158.56 63.64C155.189 63.64 152.074 63.128 149.216 62.104C146.4 61.08 144.117 59.5227 142.368 57.432C140.661 55.2987 139.808 52.6747 139.808 49.56V48.792C139.808 48.4507 139.829 48.1947 139.872 48.024H152.288C152.245 48.152 152.224 48.408 152.224 48.792C152.224 50.1147 152.672 51.2027 153.568 52.056C154.506 52.9093 156.042 53.336 158.176 53.336C160.522 53.336 162.122 53.1013 162.976 52.632C163.829 52.12 164.256 51.4373 164.256 50.584C164.256 49.56 163.658 48.792 162.464 48.28C161.269 47.7253 159.392 47.1707 156.832 46.616C153.589 45.9333 150.88 45.1867 148.704 44.376C146.57 43.5227 144.714 42.1573 143.136 40.28C141.557 38.36 140.768 35.736 140.768 32.408C140.768 29.4213 141.578 26.8827 143.2 24.792C144.864 22.7013 147.104 21.1227 149.92 20.056C152.736 18.9893 155.893 18.456 159.392 18.456ZM194.359 29.656C197.516 29.656 200.247 30.2533 202.551 31.448C204.855 32.6427 206.604 34.3067 207.799 36.44C209.036 38.5307 209.655 40.8987 209.655 43.544H198.839V41.88C198.839 40.6427 198.412 39.5973 197.559 38.744C196.706 37.848 195.66 37.4 194.423 37.4C193.186 37.4 192.14 37.848 191.287 38.744C190.434 39.5973 190.007 40.6427 190.007 41.88V51.416C190.007 52.6533 190.434 53.72 191.287 54.616C192.183 55.4693 193.25 55.896 194.487 55.896H195.255C196.492 55.896 197.516 55.4693 198.327 54.616C199.138 53.7627 199.543 52.696 199.543 51.416V49.752H209.655C209.655 54.1467 208.29 57.56 205.559 59.992C202.828 62.424 199.116 63.64 194.423 63.64H192.567C189.708 63.64 187.042 62.936 184.567 61.528C182.092 60.12 180.108 58.2213 178.615 55.832C177.164 53.4 176.439 50.776 176.439 47.96V45.336C176.439 42.52 177.164 39.9173 178.615 37.528C180.066 35.096 182.007 33.176 184.439 31.768C186.914 30.36 189.58 29.656 192.439 29.656H194.359ZM226.764 29.656C229.965 29.656 232.845 30.36 235.405 31.768C238.007 33.1333 240.034 35.0533 241.485 37.528C242.978 40.0027 243.724 42.8187 243.724 45.976V47.32C243.724 50.52 242.978 53.3573 241.485 55.832C240.034 58.3067 238.007 60.2267 235.405 61.592C232.845 62.9573 229.965 63.64 226.764 63.64H224.716C221.516 63.64 218.615 62.9573 216.012 61.592C213.452 60.184 211.426 58.2427 209.932 55.768C208.482 53.2933 207.756 50.4773 207.756 47.32V45.976C207.756 42.8187 208.482 40.0027 209.932 37.528C211.426 35.0533 213.452 33.1333 216.012 31.768C218.615 30.36 221.516 29.656 224.716 29.656H226.764ZM225.74 37.4C224.503 37.4 223.458 37.848 222.604 38.744C221.751 39.5973 221.324 40.6427 221.324 41.88V51.416C221.324 52.6533 221.751 53.72 222.604 54.616C223.458 55.4693 224.503 55.896 225.74 55.896C226.978 55.896 228.023 55.4693 228.876 54.616C229.73 53.72 230.156 52.6533 230.156 51.416V41.88C230.156 40.6427 229.73 39.5973 228.876 38.744C228.023 37.848 226.978 37.4 225.74 37.4ZM294.951 30.296H302.631V39.384H294.951V51.48C294.951 53.1867 295.271 54.36 295.911 55C296.593 55.5973 297.489 55.896 298.599 55.896C299.111 55.896 299.772 55.832 300.583 55.704C301.436 55.5333 302.097 55.3413 302.567 55.128V62.296C301.585 62.7227 300.22 63.064 298.471 63.32C296.721 63.576 295.228 63.704 293.991 63.704C290.236 63.704 287.335 63.0213 285.287 61.656C283.281 60.2907 282.279 57.9653 282.279 54.68V39.384H278.695V30.296H282.791L287.207 19.864H294.951V30.296Z" fill="#F3F3F3"/>
<path fill-rule="evenodd" clip-rule="evenodd" d="M254.767 21.619C255.275 21.8656 257.263 22.9654 257.358 22.8322C259.797 19.3918 255.761 11.3135 254.802 8.37355C254.541 7.57195 253.844 5.07058 254.574 3C254.059 4.46279 253.447 5.92677 253.451 7.67695C253.462 12.2753 256.738 16.9271 254.716 21.424C254.694 21.4732 254.694 21.5836 254.767 21.619ZM262.185 21.619C262.692 21.8656 264.681 22.9654 264.776 22.8322C267.215 19.3918 263.179 11.3135 262.22 8.37355C261.959 7.57195 261.262 5.07058 261.992 3C261.477 4.46279 260.865 5.92677 260.869 7.67695C260.88 12.2753 264.156 16.9271 262.134 21.424C262.112 21.4732 262.112 21.5836 262.185 21.619ZM277.478 29.8143C276.934 29.2683 276.111 29.3127 275.182 29.2875C274.824 29.2767 274.281 29.3403 274.038 29.1129C273.741 28.8357 273.872 28.2183 273.859 27.8704C273.828 27.0898 273.762 26.2606 273.302 25.9834C272.843 25.708 271.174 25.8478 270.084 25.8478H249.73C248.522 25.8478 247.142 25.6576 246.288 25.8478C245.455 26.0344 245.413 27.0292 245.36 27.9502C245.316 28.6989 245.033 29.2767 244.095 29.2185C243.004 29.1519 241.918 29.1309 241.425 29.7783C240.759 30.6537 241.011 31.5759 241.274 33.4383H277.792C277.976 31.9377 278.267 30.6069 277.478 29.8143ZM244.118 34.8627C244.998 42.6722 245.863 50.4955 246.737 58.3116H247.902C248.142 59.616 248.488 61.8474 248.758 63H270.458C270.567 61.7472 271.088 59.6904 271.3 58.3116H272.478C273.338 50.4157 274.254 42.5702 275.099 34.6593H244.193C244.104 34.6707 244.11 34.7661 244.118 34.8627Z" fill="#F59625"/>
</g>
<defs>
<clipPath id="clip0_1_2">
<rect width="305" height="69" fill="white"/>
</clipPath>
</defs>
</svg>
